# xmcd CD database file
#
# Track frame offsets:
#	150
#	8056
#	26984
#	69583
#	92005
#	125734
#	134605
#	149192
#	172301
#	203274
#
# Disc length: 2858 seconds
#
# Revision: 0
# Processed by: cddbd v1.5.2PL0 Copyright (c) Steve Scherf et al.
# Submitted via: CDex 1.51
#
DISCID=9a0b280a
DTITLE=JOURNAL INTIME - Journal Intime
DYEAR=2008
DGENRE=Jazz
TTITLE0=Clairon Lutin
TTITLE1=L'Auter Bulle
TTITLE2=L'Horloge Du Génie
TTITLE3=Braggin' In Brass
TTITLE4=Lester Fantasy
TTITLE5=Bave Et Transpiration
TTITLE6=Léo
TTITLE7=Captaine Guebé
TTITLE8=Une Peur Caché
TTITLE9=Le Corail
EXTD=YEAR: 2008
EXTT0=
EXTT1=
EXTT2=
EXTT3=
EXTT4=
EXTT5=
EXTT6=
EXTT7=
EXTT8=
EXTT9=
PLAYORDER=
